<svg width="16" height="16" viewBox="0 0 16 16" fill="none" xmlns="http://www.w3.org/2000/svg">
<g id="icon/content/add_circle_outline_24px">
<path id="icon/content/add_circle_outline_24px_2" fill-rule="evenodd" clip-rule="evenodd" d="M7.99992 1.33334C4.31992 1.33334 1.33325 4.32001 1.33325 8.00001C1.33325 11.68 4.31992 14.6667 7.99992 14.6667C11.6799 14.6667 14.6666 11.68 14.6666 8.00001C14.6666 4.32001 11.6799 1.33334 7.99992 1.33334ZM8 4.66667C7.63333 4.66667 7.33333 4.96667 7.33333 5.33333V7.33333H5.33333C4.96667 7.33333 4.66667 7.63333 4.66667 8C4.66667 8.36667 4.96667 8.66667 5.33333 8.66667H7.33333V10.6667C7.33333 11.0333 7.63333 11.3333 8 11.3333C8.36667 11.3333 8.66667 11.0333 8.66667 10.6667V8.66667H10.6667C11.0333 8.66667 11.3333 8.36667 11.3333 8C11.3333 7.63333 11.0333 7.33333 10.6667 7.33333H8.66667V5.33333C8.66667 4.96667 8.36667 4.66667 8 4.66667ZM2.66667 8C2.66667 10.94 5.06 13.3333 8 13.3333C10.94 13.3333 13.3333 10.94 13.3333 8C13.3333 5.06 10.94 2.66667 8 2.66667C5.06 2.66667 2.66667 5.06 2.66667 8Z" fill="white" fill-opacity="0.7"/>
</g>
</svg>
