<?xml version="1.0" encoding="utf-8"?>
<!-- Generator: Adobe Illustrator 23.0.3, SVG Export Plug-In . SVG Version: 6.00 Build 0)  -->
<svg version="1.1" id="Ebene_1" xmlns="http://www.w3.org/2000/svg" xmlns:xlink="http://www.w3.org/1999/xlink" x="0px" y="0px"
	 viewBox="0 0 16 16" style="enable-background:new 0 0 16 16;" xml:space="preserve">
<style type="text/css">
	.st0{fill-rule:evenodd;clip-rule:evenodd;fill-opacity:0.7;}
</style>
<g>
	<path class="st0" d="M4.5,13H2.2c-0.4,0-0.8-0.3-0.8-0.8V3.7C1.4,3.3,1.8,3,2.2,3h2.3c0.4,0,0.8,0.3,0.8,0.8v8.5
		C5.3,12.7,4.9,13,4.5,13z M9.2,13H6.8c-0.4,0-0.8-0.3-0.8-0.8V9.2c0-0.4,0.3-0.8,0.8-0.8h2.3c0.4,0,0.8,0.3,0.8,0.8v3.1
		C9.9,12.7,9.6,13,9.2,13z M11.5,13h2.3c0.4,0,0.8-0.3,0.8-0.8V9.2c0-0.4-0.3-0.8-0.8-0.8h-2.3c-0.4,0-0.8,0.3-0.8,0.8v3.1
		C10.7,12.7,11.1,13,11.5,13z M6.1,6.8V3.7C6.1,3.3,6.4,3,6.8,3h7c0.4,0,0.8,0.3,0.8,0.8v3.1c0,0.4-0.3,0.8-0.8,0.8h-7
		C6.4,7.6,6.1,7.3,6.1,6.8z"/>
</g>
</svg>
