<?xml version="1.0" encoding="utf-8"?>
<!-- Generator: Adobe Illustrator 23.0.3, SVG Export Plug-In . SVG Version: 6.00 Build 0)  -->
<svg version="1.1" id="Ebene_1" xmlns="http://www.w3.org/2000/svg" xmlns:xlink="http://www.w3.org/1999/xlink" x="0px" y="0px"
	 viewBox="0 0 16 16" style="enable-background:new 0 0 16 16;" xml:space="preserve">
<style type="text/css">
	.st0{fill-rule:evenodd;clip-rule:evenodd;fill:#FFFFFF;fill-opacity:0.7;}
</style>
<path class="st0" d="M10.3,2.7H12c0.4,0,0.7,0.3,0.7,0.7C12.7,3.7,12.4,4,12,4H4C3.6,4,3.3,3.7,3.3,3.3C3.3,3,3.6,2.7,4,2.7h1.7
	l0.5-0.5C6.3,2.1,6.4,2,6.6,2h2.8c0.2,0,0.3,0.1,0.5,0.2L10.3,2.7z M5.3,14C4.6,14,4,13.4,4,12.7V6c0-0.7,0.6-1.3,1.3-1.3h5.3
	C11.4,4.7,12,5.3,12,6v6.7c0,0.7-0.6,1.3-1.3,1.3H5.3z"/>
</svg>
