<?xml version="1.0" encoding="utf-8"?>
<!-- Generator: Adobe Illustrator 23.0.3, SVG Export Plug-In . SVG Version: 6.00 Build 0)  -->
<svg version="1.1" id="Ebene_1" xmlns="http://www.w3.org/2000/svg" xmlns:xlink="http://www.w3.org/1999/xlink" x="0px" y="0px"
	 viewBox="0 0 16 16" style="enable-background:new 0 0 16 16;" xml:space="preserve">
<style type="text/css">
	.st0{fill-rule:evenodd;clip-rule:evenodd;fill:#FFFFFF;fill-opacity:0.7;}
</style>
<g>
	<path class="st0" d="M8,1.3c-3.7,0-6.7,3-6.7,6.7s3,6.7,6.7,6.7s6.7-3,6.7-6.7S11.7,1.3,8,1.3z M8,13.3c-2.9,0-5.3-2.4-5.3-5.3
		S5.1,2.7,8,2.7s5.3,2.4,5.3,5.3S10.9,13.3,8,13.3z"/>
	<path class="st0" d="M8.9,8l1.8-1.8c0.2-0.2,0.2-0.5,0-0.7l-0.2-0.2c-0.2-0.2-0.5-0.2-0.7,0L8,7.1L6.2,5.3C6,5.1,5.7,5.1,5.5,5.3
		L5.3,5.5C5.1,5.7,5.1,6,5.3,6.2L7.1,8L5.3,9.8c-0.2,0.2-0.2,0.5,0,0.7l0.2,0.2c0.2,0.2,0.5,0.2,0.7,0L8,8.9l1.8,1.8
		c0.2,0.2,0.5,0.2,0.7,0l0.2-0.2c0.2-0.2,0.2-0.5,0-0.7L8.9,8z"/>
</g>
</svg>
