<svg width="16" height="16" viewBox="0 0 16 16" fill="none" xmlns="http://www.w3.org/2000/svg">
<g id="icon/content/add_circle_outline_24px">
<path id="icon/content/add_circle_outline_24px_2" fill-rule="evenodd" clip-rule="evenodd" d="M7.99992 1.33337C4.31992 1.33337 1.33325 4.32004 1.33325 8.00004C1.33325 11.68 4.31992 14.6667 7.99992 14.6667C11.6799 14.6667 14.6666 11.68 14.6666 8.00004C14.6666 4.32004 11.6799 1.33337 7.99992 1.33337ZM8 4.6667C7.63333 4.6667 7.33333 4.9667 7.33333 5.33336V7.33336H5.33333C4.96667 7.33336 4.66667 7.63336 4.66667 8.00003C4.66667 8.3667 4.96667 8.6667 5.33333 8.6667H7.33333V10.6667C7.33333 11.0334 7.63333 11.3334 8 11.3334C8.36667 11.3334 8.66667 11.0334 8.66667 10.6667V8.6667H10.6667C11.0333 8.6667 11.3333 8.3667 11.3333 8.00003C11.3333 7.63336 11.0333 7.33336 10.6667 7.33336H8.66667V5.33336C8.66667 4.9667 8.36667 4.6667 8 4.6667ZM2.66667 8.00003C2.66667 10.94 5.06 13.3334 8 13.3334C10.94 13.3334 13.3333 10.94 13.3333 8.00003C13.3333 5.06003 10.94 2.6667 8 2.6667C5.06 2.6667 2.66667 5.06003 2.66667 8.00003Z" fill="black" fill-opacity="0.7"/>
</g>
</svg>
