<?xml version="1.0" encoding="utf-8"?>
<!-- Generator: Adobe Illustrator 23.0.3, SVG Export Plug-In . SVG Version: 6.00 Build 0)  -->
<svg version="1.1" id="Ebene_1" xmlns="http://www.w3.org/2000/svg" xmlns:xlink="http://www.w3.org/1999/xlink" x="0px" y="0px"
	 viewBox="0 0 16 16" style="enable-background:new 0 0 16 16;" xml:space="preserve">
<style type="text/css">
	.st0{fill-rule:evenodd;clip-rule:evenodd;fill:#FFFFFF;fill-opacity:0.7;}
</style>
<path class="st0" d="M8,1.3c-3.7,0-6.7,3-6.7,6.7c0,3.7,3,6.7,6.7,6.7c3.7,0,6.7-3,6.7-6.7C14.7,4.3,11.7,1.3,8,1.3z M8,13.3
	c-2.9,0-5.3-2.4-5.3-5.3S5.1,2.7,8,2.7c2.9,0,5.3,2.4,5.3,5.3S10.9,13.3,8,13.3z M6.7,9.4l3.9-3.9c0.3-0.3,0.7-0.3,0.9,0
	c0.3,0.3,0.3,0.7,0,0.9l-4.4,4.4c-0.3,0.3-0.7,0.3-0.9,0L4.5,9.1c-0.3-0.3-0.3-0.7,0-0.9C4.6,8.1,4.8,8,4.9,8c0.2,0,0.3,0.1,0.5,0.2
	L6.7,9.4z"/>
</svg>
