<svg width="16" height="16" viewBox="0 0 16 16" fill="none" xmlns="http://www.w3.org/2000/svg">
<g id="icon/editor/format_bold_24px">
<path id="icon/editor/format_bold_24px_2" fill-rule="evenodd" clip-rule="evenodd" d="M10.1501 7.85999C10.7967 7.41333 11.2501 6.67999 11.2501 5.99999C11.2501 4.49333 10.0834 3.33333 8.58341 3.33333H5.08341C4.71675 3.33333 4.41675 3.63333 4.41675 3.99999V12C4.41675 12.3667 4.71675 12.6667 5.08341 12.6667H8.93675C10.3167 12.6667 11.5767 11.54 11.5834 10.1533C11.5901 9.13333 11.0167 8.25999 10.1501 7.85999ZM6.41667 5.00002H8.41667C8.97 5.00002 9.41667 5.44668 9.41667 6.00002C9.41667 6.55335 8.97 7.00002 8.41667 7.00002H6.41667V5.00002ZM6.41667 11H8.75C9.30333 11 9.75 10.5533 9.75 10C9.75 9.44668 9.30333 9.00002 8.75 9.00002H6.41667V11Z" fill="white" fill-opacity="0.7"/>
</g>
</svg>
