<?xml version="1.0" encoding="utf-8"?>
<!-- Generator: Adobe Illustrator 23.0.3, SVG Export Plug-In . SVG Version: 6.00 Build 0)  -->
<svg version="1.1" id="Ebene_1" xmlns="http://www.w3.org/2000/svg" xmlns:xlink="http://www.w3.org/1999/xlink" x="0px" y="0px"
	 viewBox="0 0 16 16" style="enable-background:new 0 0 16 16;" xml:space="preserve">
<style type="text/css">
	.st0{fill-rule:evenodd;clip-rule:evenodd;fill:#FFFFFF;fill-opacity:0.7;}
</style>
<g>
	<path class="st0" d="M12.1,11.3L4.6,3.8c-0.3-0.3-0.7-0.3-0.9,0C3.4,4,3.4,4.4,3.6,4.7l7.5,7.5c0.3,0.3,0.7,0.3,0.9,0
		C12.4,12,12.4,11.6,12.1,11.3z"/>
	<g>
		<path class="st0" d="M9.2,6.5V5h2.3c0.5,0,1-0.4,1-1c0-0.5-0.5-1-1-1H5.7L9.2,6.5z"/>
		<path class="st0" d="M6.6,9.5V11v0.7c0,0.7,0.6,1.3,1.3,1.3c0.6,0,1.1-0.4,1.3-0.9L6.6,9.5z"/>
	</g>
</g>
</svg>
