<svg width="16" height="16" viewBox="0 0 16 16" fill="none" xmlns="http://www.w3.org/2000/svg">
<g id="icon/navigation/refresh_24px">
<path id="icon/navigation/refresh_24px_2" d="M11.7612 4.23431C10.6746 3.14764 9.13456 2.52098 7.44123 2.69431C4.99456 2.94098 2.98123 4.92764 2.7079 7.37431C2.34123 10.6076 4.84123 13.3343 7.99456 13.3343C10.1212 13.3343 11.9479 12.0876 12.8012 10.2943C13.0146 9.84764 12.6946 9.33431 12.2012 9.33431C11.9546 9.33431 11.7212 9.46764 11.6146 9.68764C10.8612 11.3076 9.05456 12.3343 7.08123 11.8943C5.60123 11.5676 4.4079 10.361 4.09456 8.88098C3.53456 6.29431 5.50123 4.00098 7.99456 4.00098C9.10123 4.00098 10.0879 4.46098 10.8079 5.18764L9.80123 6.19431C9.38123 6.61431 9.67456 7.33431 10.2679 7.33431H12.6612C13.0279 7.33431 13.3279 7.03431 13.3279 6.66764V4.27431C13.3279 3.68098 12.6079 3.38098 12.1879 3.80098L11.7612 4.23431Z" fill="white" fill-opacity="0.7"/>
</g>
</svg>
