<svg width="16" height="16" viewBox="0 0 16 16" fill="none" xmlns="http://www.w3.org/2000/svg">
<g id="icon/editor/format_italicon/editor/24px">
<path id="icon/editor/format_italicon/editor/24px_2" d="M6.66667 4.33333C6.66667 4.88666 7.11333 5.33333 7.66667 5.33333H8.14L5.86 10.6667H5C4.44667 10.6667 4 11.1133 4 11.6667C4 12.22 4.44667 12.6667 5 12.6667H8.33333C8.88667 12.6667 9.33333 12.22 9.33333 11.6667C9.33333 11.1133 8.88667 10.6667 8.33333 10.6667H7.86L10.14 5.33333H11C11.5533 5.33333 12 4.88666 12 4.33333C12 3.77999 11.5533 3.33333 11 3.33333H7.66667C7.11333 3.33333 6.66667 3.77999 6.66667 4.33333Z" fill="white" fill-opacity="0.7"/>
</g>
</svg>
