<svg width="16" height="16" viewBox="0 0 16 16" fill="none" xmlns="http://www.w3.org/2000/svg">
<g id="icon/editor/format_list_numbered_24px">
<path id="icon/editor/format_list_numbered_24px_2" fill-rule="evenodd" clip-rule="evenodd" d="M2.00016 3.33334H2.3335V5.00001C2.3335 5.18667 2.48016 5.33334 2.66683 5.33334C2.8535 5.33334 3.00016 5.18667 3.00016 5.00001V3.00001C3.00016 2.81334 2.8535 2.66667 2.66683 2.66667H2.00016C1.8135 2.66667 1.66683 2.81334 1.66683 3.00001C1.66683 3.18667 1.8135 3.33334 2.00016 3.33334ZM13.6667 4.66671H5.66675C5.30008 4.66671 5.00008 4.36671 5.00008 4.00005C5.00008 3.63338 5.30008 3.33338 5.66675 3.33338H13.6667C14.0334 3.33338 14.3334 3.63338 14.3334 4.00005C14.3334 4.36671 14.0334 4.66671 13.6667 4.66671ZM5.66675 11.3334H13.6667C14.0334 11.3334 14.3334 11.6334 14.3334 12C14.3334 12.3667 14.0334 12.6667 13.6667 12.6667H5.66675C5.30008 12.6667 5.00008 12.3667 5.00008 12C5.00008 11.6334 5.30008 11.3334 5.66675 11.3334ZM13.6667 7.33338H5.66675C5.30008 7.33338 5.00008 7.63338 5.00008 8.00005C5.00008 8.36671 5.30008 8.66671 5.66675 8.66671H13.6667C14.0334 8.66671 14.3334 8.36671 14.3334 8.00005C14.3334 7.63338 14.0334 7.33338 13.6667 7.33338ZM2.00008 10.6667H3.33341C3.52008 10.6667 3.66675 10.8134 3.66675 11V13C3.66675 13.1867 3.52008 13.3334 3.33341 13.3334H2.00008C1.81341 13.3334 1.66675 13.1867 1.66675 13C1.66675 12.8134 1.81341 12.6667 2.00008 12.6667H3.00008V12.3334H2.66675C2.48008 12.3334 2.33341 12.1867 2.33341 12C2.33341 11.8134 2.48008 11.6667 2.66675 11.6667H3.00008V11.3334H2.00008C1.81341 11.3334 1.66675 11.1867 1.66675 11C1.66675 10.8134 1.81341 10.6667 2.00008 10.6667ZM2.00008 6.66671H3.33341C3.52008 6.66671 3.66675 6.81338 3.66675 7.00005V7.14671C3.66675 7.22005 3.64008 7.30005 3.58675 7.36005L2.46675 8.66671H3.33341C3.52008 8.66671 3.66675 8.81338 3.66675 9.00005C3.66675 9.18671 3.52008 9.33338 3.33341 9.33338H2.00008C1.81341 9.33338 1.66675 9.18671 1.66675 9.00005V8.85338C1.66675 8.78005 1.69341 8.70005 1.74675 8.64005L2.86675 7.33338H2.00008C1.81341 7.33338 1.66675 7.18671 1.66675 7.00005C1.66675 6.81338 1.81341 6.66671 2.00008 6.66671Z" fill="white" fill-opacity="0.7"/>
</g>
</svg>
