<svg width="16" height="16" viewBox="0 0 16 16" fill="none" xmlns="http://www.w3.org/2000/svg">
<g id="icon/navigation/refresh_24px">
<path id="icon/navigation/refresh_24px_2" d="M4.23877 4.23431C5.32544 3.14764 6.86544 2.52098 8.55877 2.69431C11.0054 2.94098 13.0188 4.92764 13.2921 7.37431C13.6588 10.6076 11.1588 13.3343 8.00544 13.3343C5.87877 13.3343 4.0521 12.0876 3.19877 10.2943C2.98544 9.84764 3.30544 9.33431 3.79877 9.33431C4.04544 9.33431 4.27877 9.46764 4.38544 9.68764C5.13877 11.3076 6.94544 12.3343 8.91877 11.8943C10.3988 11.5676 11.5921 10.361 11.9054 8.88098C12.4654 6.29431 10.4988 4.00098 8.00544 4.00098C6.89877 4.00098 5.9121 4.46098 5.1921 5.18764L6.19877 6.19431C6.61877 6.61431 6.32544 7.33431 5.7321 7.33431H3.33877C2.97211 7.33431 2.6721 7.03431 2.6721 6.66764V4.27431C2.6721 3.68098 3.39211 3.38098 3.81211 3.80098L4.23877 4.23431Z" fill="white" fill-opacity="0.7"/>
</g>
</svg>
