<svg width="16" height="16" viewBox="0 0 16 16" fill="none" xmlns="http://www.w3.org/2000/svg">
<g id="icon/editor/format_strikethrough_24px">
<path id="icon/editor/format_strikethrough_24px_2" fill-rule="evenodd" clip-rule="evenodd" d="M3.33333 4C3.33333 4.55333 3.78 5 4.33333 5H6.66667V7H9.33333V5H11.6667C12.22 5 12.6667 4.55333 12.6667 4C12.6667 3.44667 12.22 3 11.6667 3H4.33333C3.78 3 3.33333 3.44667 3.33333 4ZM8 13C8.73333 13 9.33333 12.4 9.33333 11.6667V11H6.66667V11.6667C6.66667 12.4 7.26667 13 8 13ZM13.3333 9.66667H2.66667C2.3 9.66667 2 9.36667 2 9C2 8.63333 2.3 8.33333 2.66667 8.33333H13.3333C13.7 8.33333 14 8.63333 14 9C14 9.36667 13.7 9.66667 13.3333 9.66667Z" fill="white" fill-opacity="0.7"/>
</g>
</svg>
