<svg width="16" height="16" viewBox="0 0 16 16" fill="none" xmlns="http://www.w3.org/2000/svg">
<g id="icon/editor/format_underlined_24px">
<path id="icon/editor/format_underlined_24px_2" fill-rule="evenodd" clip-rule="evenodd" d="M11.9999 7.19333C11.9999 9.22667 10.5466 11.04 8.52659 11.3C6.08659 11.6133 3.99992 9.71333 3.99992 7.33333V2.83333C3.99992 2.37333 4.37325 2 4.83325 2C5.29325 2 5.66659 2.37333 5.66659 2.83333V7.33333C5.66659 8.78 6.98659 9.92667 8.48659 9.61333C9.57992 9.39333 10.3333 8.38 10.3333 7.26667V2.83333C10.3333 2.37333 10.7066 2 11.1666 2C11.6266 2 11.9999 2.37333 11.9999 2.83333V7.19333ZM3.99992 14C3.63325 14 3.33325 13.7 3.33325 13.3333C3.33325 12.9667 3.63325 12.6667 3.99992 12.6667H11.9999C12.3666 12.6667 12.6666 12.9667 12.6666 13.3333C12.6666 13.7 12.3666 14 11.9999 14H3.99992Z" fill="white" fill-opacity="0.7"/>
</g>
</svg>
