<svg width="16" height="16" viewBox="0 0 16 16" fill="none" xmlns="http://www.w3.org/2000/svg">
<g id="icon/editor/format_list_bulleted_24px">
<path id="icon/editor/format_list_bulleted_24px_2" fill-rule="evenodd" clip-rule="evenodd" d="M1.83325 4C1.83325 3.44667 2.27992 3 2.83325 3C3.38659 3 3.83325 3.44667 3.83325 4C3.83325 4.55333 3.38659 5 2.83325 5C2.27992 5 1.83325 4.55333 1.83325 4ZM1.83333 8C1.83333 7.44667 2.28 7 2.83333 7C3.38667 7 3.83333 7.44667 3.83333 8C3.83333 8.55333 3.38667 9 2.83333 9C2.28 9 1.83333 8.55333 1.83333 8ZM2.83333 11C2.28 11 1.83333 11.4533 1.83333 12C1.83333 12.5467 2.28667 13 2.83333 13C3.38 13 3.83333 12.5467 3.83333 12C3.83333 11.4533 3.38667 11 2.83333 11ZM13.5 12.6667H5.5C5.13333 12.6667 4.83333 12.3667 4.83333 12C4.83333 11.6333 5.13333 11.3333 5.5 11.3333H13.5C13.8667 11.3333 14.1667 11.6333 14.1667 12C14.1667 12.3667 13.8667 12.6667 13.5 12.6667ZM5.5 8.66667H13.5C13.8667 8.66667 14.1667 8.36667 14.1667 8C14.1667 7.63333 13.8667 7.33333 13.5 7.33333H5.5C5.13333 7.33333 4.83333 7.63333 4.83333 8C4.83333 8.36667 5.13333 8.66667 5.5 8.66667ZM5.5 4.66667C5.13333 4.66667 4.83333 4.36667 4.83333 4C4.83333 3.63333 5.13333 3.33333 5.5 3.33333H13.5C13.8667 3.33333 14.1667 3.63333 14.1667 4C14.1667 4.36667 13.8667 4.66667 13.5 4.66667H5.5Z" fill="white" fill-opacity="0.7"/>
</g>
</svg>
