<?xml version="1.0" encoding="utf-8"?>
<!-- Generator: Adobe Illustrator 23.0.3, SVG Export Plug-In . SVG Version: 6.00 Build 0)  -->
<svg version="1.1" id="Ebene_1" xmlns="http://www.w3.org/2000/svg" xmlns:xlink="http://www.w3.org/1999/xlink" x="0px" y="0px"
	 viewBox="0 0 16 16" style="enable-background:new 0 0 16 16;" xml:space="preserve">
<style type="text/css">
	.st0{fill-rule:evenodd;clip-rule:evenodd;fill:#FFFFFF;fill-opacity:0.7;}
</style>
<path class="st0" d="M1.3,8c0-3.7,3-6.7,6.7-6.7c3.7,0,6.7,3,6.7,6.7c0,3.7-3,6.7-6.7,6.7C4.3,14.7,1.3,11.7,1.3,8z M10.6,5.3h2
	C12,4.2,11,3.4,9.7,3C10.1,3.7,10.4,4.5,10.6,5.3z M8,2.7c0.6,0.8,1,1.7,1.3,2.6H6.7C7,4.4,7.4,3.5,8,2.7z M2.7,8
	c0,0.5,0.1,0.9,0.2,1.3h2.3C5,8.9,5,8.5,5,8s0-0.9,0.1-1.3H2.8C2.7,7.1,2.7,7.5,2.7,8z M3.4,10.7h2c0.2,0.8,0.5,1.6,0.9,2.4
	C5,12.6,4,11.8,3.4,10.7z M3.4,5.3h2C5.6,4.5,5.9,3.7,6.3,3C5,3.4,4,4.2,3.4,5.3z M8,13.3c-0.6-0.8-1-1.7-1.3-2.6h2.5
	C9,11.6,8.6,12.5,8,13.3z M6.4,9.3h3.1C9.6,8.9,9.7,8.5,9.7,8s0-0.9-0.1-1.3H6.4C6.4,7.1,6.3,7.5,6.3,8S6.4,8.9,6.4,9.3z M9.7,13
	c0.4-0.7,0.7-1.5,0.9-2.4h2C12,11.8,11,12.6,9.7,13z M11,8c0,0.5,0,0.9-0.1,1.3h2.3c0.1-0.4,0.2-0.9,0.2-1.3s-0.1-0.9-0.2-1.3h-2.3
	C11,7.1,11,7.5,11,8z"/>
</svg>
