<svg width="16" height="16" viewBox="0 0 16 16" fill="none" xmlns="http://www.w3.org/2000/svg">
<g id="icon/action/settings_24px">
<path id="icon/action/settings_24px_2" fill-rule="evenodd" clip-rule="evenodd" d="M13.0016 7.99998C13.0016 8.22665 12.9816 8.43998 12.9549 8.65331L14.3616 9.75331C14.4883 9.85331 14.5216 10.0333 14.4416 10.18L13.1083 12.4866C13.0283 12.6333 12.8549 12.6933 12.7016 12.6333L11.0416 11.9666C10.6949 12.2266 10.3216 12.4533 9.91494 12.62L9.6616 14.3866C9.6416 14.5466 9.5016 14.6666 9.33494 14.6666H6.66827C6.5016 14.6666 6.3616 14.5466 6.3416 14.3866L6.08827 12.62C5.6816 12.4533 5.30827 12.2333 4.9616 11.9666L3.3016 12.6333C3.15494 12.6866 2.97494 12.6333 2.89494 12.4866L1.5616 10.18C1.4816 10.0333 1.51494 9.85331 1.6416 9.75331L3.04827 8.65331C3.0216 8.43998 3.0016 8.21998 3.0016 7.99998C3.0016 7.77998 3.0216 7.55998 3.04827 7.34665L1.6416 6.24665C1.51494 6.14665 1.47494 5.96665 1.5616 5.81998L2.89494 3.51331C2.97494 3.36665 3.14827 3.30665 3.3016 3.36665L4.9616 4.03331C5.30827 3.77331 5.6816 3.54665 6.08827 3.37998L6.3416 1.61331C6.3616 1.45331 6.5016 1.33331 6.66827 1.33331H9.33494C9.5016 1.33331 9.6416 1.45331 9.6616 1.61331L9.91494 3.37998C10.3216 3.54665 10.6949 3.76665 11.0416 4.03331L12.7016 3.36665C12.8483 3.31331 13.0283 3.36665 13.1083 3.51331L14.4416 5.81998C14.5216 5.96665 14.4883 6.14665 14.3616 6.24665L12.9549 7.34665C12.9816 7.55998 13.0016 7.77331 13.0016 7.99998ZM5.66813 8C5.66813 9.28667 6.7148 10.3333 8.00146 10.3333C9.28813 10.3333 10.3348 9.28667 10.3348 8C10.3348 6.71333 9.28813 5.66667 8.00146 5.66667C6.7148 5.66667 5.66813 6.71333 5.66813 8Z" fill="black" fill-opacity="0.7"/>
</g>
</svg>
