<svg width="16" height="16" viewBox="0 0 16 16" fill="none" xmlns="http://www.w3.org/2000/svg">
<g id="icon/content/file_copy_24px">
<path id="icon/content/file_copy_24px_2" fill-rule="evenodd" clip-rule="evenodd" d="M10.3334 0.666656H3.00002C2.26669 0.666656 1.66669 1.26666 1.66669 1.99999V10.6667C1.66669 11.0333 1.96669 11.3333 2.33335 11.3333C2.70002 11.3333 3.00002 11.0333 3.00002 10.6667V2.66666C3.00002 2.29999 3.30002 1.99999 3.66669 1.99999H10.3334C10.7 1.99999 11 1.69999 11 1.33332C11 0.966657 10.7 0.666656 10.3334 0.666656ZM10.7267 3.72667L13.9467 6.94667C14.1933 7.19333 14.3333 7.53333 14.3333 7.88667V14C14.3333 14.7333 13.7333 15.3333 13 15.3333H5.66C4.92667 15.3333 4.33333 14.7333 4.33333 14L4.34 4.66667C4.34 3.93333 4.93333 3.33333 5.66667 3.33333H9.78C10.1333 3.33333 10.4733 3.47333 10.7267 3.72667ZM13.3333 8H10.3333C9.96667 8 9.66667 7.7 9.66667 7.33333V4.33333L13.3333 8Z" fill="black" fill-opacity="0.7"/>
</g>
</svg>
