<svg width="16" height="16" viewBox="0 0 16 16" fill="none" xmlns="http://www.w3.org/2000/svg">
<g id="icon/image/collections_bookmark_24px">
<path id="icon/image/collections_bookmark_24px_2" fill-rule="evenodd" clip-rule="evenodd" d="M13.3333 1.33334H5.33331C4.59998 1.33334 3.99998 1.93334 3.99998 2.66668V10.6667C3.99998 11.4 4.59998 12 5.33331 12H13.3333C14.0666 12 14.6666 11.4 14.6666 10.6667V2.66668C14.6666 1.93334 14.0666 1.33334 13.3333 1.33334ZM11.3333 13.3333H3.33331C2.96665 13.3333 2.66665 13.0333 2.66665 12.6667V4.66668C2.66665 4.30001 2.36665 4.00001 1.99998 4.00001C1.63331 4.00001 1.33331 4.30001 1.33331 4.66668V13.3333C1.33331 14.0667 1.93331 14.6667 2.66665 14.6667H11.3333C11.7 14.6667 12 14.3667 12 14C12 13.6333 11.7 13.3333 11.3333 13.3333ZM11.6666 7.00001L13.3333 8.00001V2.66668H9.99998V8.00001L11.6666 7.00001Z" fill="black" fill-opacity="0.7"/>
</g>
</svg>
