<svg width="16" height="16" viewBox="0 0 16 16" fill="none" xmlns="http://www.w3.org/2000/svg">
<g id="icon/action/search_24px">
<path id="icon/action/search_24px_2" fill-rule="evenodd" clip-rule="evenodd" d="M10.1242 9.64772H10.6509L13.4776 12.4877C13.7509 12.761 13.7509 13.2077 13.4776 13.481C13.2042 13.7544 12.7576 13.7544 12.4842 13.481L9.65089 10.6477V10.121L9.47089 9.93438C8.53756 10.7344 7.26422 11.1477 5.91089 10.921C4.05756 10.6077 2.57756 9.06105 2.35089 7.19438C2.00422 4.37438 4.37756 2.00105 7.19756 2.34772C9.06422 2.57438 10.6109 4.05438 10.9242 5.90772C11.1509 7.26105 10.7376 8.53438 9.93756 9.46772L10.1242 9.64772ZM3.65104 6.64771C3.65104 8.30771 4.99104 9.64771 6.65104 9.64771C8.31104 9.64771 9.65104 8.30771 9.65104 6.64771C9.65104 4.98771 8.31104 3.64771 6.65104 3.64771C4.99104 3.64771 3.65104 4.98771 3.65104 6.64771Z" fill="black" fill-opacity="0.54"/>
</g>
</svg>
