<svg width="16" height="16" viewBox="0 0 16 16" fill="none" xmlns="http://www.w3.org/2000/svg">
<g id="icon/image/remove_red_eye_24px">
<path id="icon/image/remove_red_eye_24px_2" fill-rule="evenodd" clip-rule="evenodd" d="M8.00008 3C4.66675 3 1.82008 5.07333 0.666748 8C1.82008 10.9267 4.66675 13 8.00008 13C11.3334 13 14.1801 10.9267 15.3334 8C14.1801 5.07333 11.3334 3 8.00008 3ZM8 11.3333C6.16 11.3333 4.66667 9.84 4.66667 8C4.66667 6.16 6.16 4.66667 8 4.66667C9.84 4.66667 11.3333 6.16 11.3333 8C11.3333 9.84 9.84 11.3333 8 11.3333ZM6 8C6 6.89333 6.89333 6 8 6C9.10667 6 10 6.89333 10 8C10 9.10667 9.10667 10 8 10C6.89333 10 6 9.10667 6 8Z" fill="black" fill-opacity="0.7"/>
</g>
</svg>
